<svg width="669" height="150" viewBox="0 0 669 150" fill="none" xmlns="http://www.w3.org/2000/svg">
<g clip-path="url(#clip0_221_43)">
<g filter="url(#filter0_d_221_43)">
<path d="M67 17L115.497 45V101L67 129L18.5026 101V45L67 17Z" fill="#16151B"/>
<path d="M22.0026 47.0207L67 21.0415L111.997 47.0207V98.9793L67 124.959L22.0026 98.9793V47.0207Z" stroke="#6C38CC" stroke-width="7"/>
</g>
<path d="M50.8125 64.1484L66.2812 81.1016L65.3047 82.1562L38.8203 65.2812V63.0547L65.3047 46.1406L66.2812 47.1953L50.8125 64.1484Z" fill="white"/>
<path d="M80.6875 80.8516L65.2188 63.8984L66.1953 62.8437L92.6797 79.7187L92.6797 81.9453L66.1953 98.8594L65.2187 97.8047L80.6875 80.8516Z" fill="white"/>
<path d="M187.99 65.61C187.99 70.9767 186.333 74.8967 183.02 77.37C179.707 79.8433 175.157 81.08 169.37 81.08H163.14V99H157.12V50.77H169.37C175.297 50.77 179.87 52.0067 183.09 54.48C186.357 56.9533 187.99 60.6633 187.99 65.61ZM181.48 65.68C181.48 62.18 180.453 59.6367 178.4 58.05C176.393 56.4167 173.64 55.6 170.14 55.6H163.14V76.25H169.93C173.57 76.25 176.393 75.4567 178.4 73.87C180.453 72.2833 181.48 69.5533 181.48 65.68ZM203.853 88.29C203.853 90.67 204.343 92.42 205.323 93.54C206.349 94.6133 207.936 95.15 210.083 95.15C212.043 95.15 213.933 94.59 215.753 93.47C217.573 92.35 219.019 90.95 220.093 89.27V62.11H225.973V99H220.933L220.443 94.03C218.996 95.85 217.199 97.2733 215.053 98.3C212.953 99.28 210.806 99.77 208.613 99.77C205.113 99.77 202.453 98.8367 200.633 96.97C198.859 95.1033 197.973 92.42 197.973 88.92V62.11H203.853V88.29ZM264.865 61.34C266.359 61.34 268.085 61.5967 270.045 62.11L269.205 74.64H264.445V66.73H264.095C258.402 66.73 254.365 70.79 251.985 78.91V94.45H259.475V99H240.295V94.45H246.105V66.66H240.295V62.11H250.515L251.635 70.86C253.129 67.6867 254.902 65.3067 256.955 63.72C259.055 62.1333 261.692 61.34 264.865 61.34ZM298.438 61.34C307.351 61.34 311.808 67.7333 311.808 80.52C311.808 86.3533 310.595 91.02 308.168 94.52C305.741 98.02 302.218 99.77 297.598 99.77C293.585 99.77 290.318 98.37 287.798 95.57V113.14L281.918 113.84V62.11H286.958L287.448 67.29C288.801 65.3767 290.411 63.9067 292.278 62.88C294.191 61.8533 296.245 61.34 298.438 61.34ZM297.038 66.1C295.171 66.1 293.445 66.66 291.858 67.78C290.318 68.9 288.965 70.3 287.798 71.98V90.25C288.778 91.6967 289.991 92.84 291.438 93.68C292.931 94.4733 294.541 94.87 296.268 94.87C299.348 94.87 301.635 93.7033 303.128 91.37C304.668 88.99 305.438 85.3733 305.438 80.52C305.438 75.6667 304.761 72.05 303.408 69.67C302.055 67.29 299.931 66.1 297.038 66.1ZM338.311 89.9C338.311 93.2133 340.341 94.87 344.401 94.87C346.314 94.87 348.367 94.45 350.561 93.61L352.101 97.88C349.767 99.14 346.851 99.77 343.351 99.77C340.037 99.77 337.377 98.86 335.371 97.04C333.411 95.22 332.431 92.7467 332.431 89.62V51.96H321.091V47.27H338.311V89.9ZM370.553 82.62C370.693 86.68 371.743 89.7367 373.703 91.79C375.71 93.8433 378.23 94.87 381.263 94.87C383.083 94.87 384.74 94.6133 386.233 94.1C387.773 93.54 389.407 92.7 391.133 91.58L393.863 95.5C392.137 96.8533 390.153 97.9033 387.913 98.65C385.72 99.3967 383.503 99.77 381.263 99.77C375.943 99.77 371.79 98.0433 368.803 94.59C365.863 91.09 364.393 86.4233 364.393 80.59C364.393 76.9033 365.047 73.6133 366.353 70.72C367.66 67.78 369.527 65.4933 371.953 63.86C374.38 62.18 377.203 61.34 380.423 61.34C385.09 61.34 388.753 62.9733 391.413 66.24C394.12 69.46 395.473 73.87 395.473 79.47C395.473 80.5433 395.427 81.5933 395.333 82.62H370.553ZM380.493 66.17C377.647 66.17 375.337 67.1967 373.563 69.25C371.79 71.2567 370.787 74.22 370.553 78.14H389.733C389.687 74.2667 388.847 71.3033 387.213 69.25C385.58 67.1967 383.34 66.17 380.493 66.17ZM438.426 85.63C438.426 88.43 437.726 90.9033 436.326 93.05C434.926 95.15 432.896 96.8067 430.236 98.02C427.576 99.1867 424.426 99.77 420.786 99.77C417.286 99.77 414.089 99.2567 411.196 98.23C408.349 97.1567 405.899 95.64 403.846 93.68L407.486 89.55C409.259 91.23 411.219 92.5133 413.366 93.4C415.559 94.2867 418.056 94.73 420.856 94.73C424.029 94.73 426.689 93.96 428.836 92.42C430.983 90.88 432.056 88.6633 432.056 85.77C432.056 84.1367 431.753 82.7833 431.146 81.71C430.539 80.6367 429.466 79.68 427.926 78.84C426.433 78 424.309 77.1833 421.556 76.39C416.329 74.85 412.433 73.0533 409.866 71C407.299 68.9 406.016 66.0533 406.016 62.46C406.016 60.08 406.669 57.9333 407.976 56.02C409.283 54.1067 411.126 52.6367 413.506 51.61C415.886 50.5367 418.593 50 421.626 50C424.799 50 427.623 50.4667 430.096 51.4C432.616 52.3333 434.926 53.71 437.026 55.53L433.386 59.45C430.073 56.5567 426.223 55.11 421.836 55.11C419.036 55.11 416.726 55.7167 414.906 56.93C413.086 58.1433 412.176 59.9167 412.176 62.25C412.176 63.65 412.549 64.84 413.296 65.82C414.043 66.8 415.279 67.71 417.006 68.55C418.733 69.39 421.159 70.2533 424.286 71.14C428.813 72.4467 432.289 74.15 434.716 76.25C437.189 78.35 438.426 81.4767 438.426 85.63ZM466.539 94.73C469.759 94.73 472.955 93.6567 476.129 91.51L478.929 95.36C477.389 96.7133 475.475 97.7867 473.189 98.58C470.902 99.3733 468.685 99.77 466.539 99.77C461.079 99.77 456.809 98.0667 453.729 94.66C450.695 91.2067 449.179 86.5633 449.179 80.73C449.179 77.0433 449.855 73.73 451.209 70.79C452.609 67.85 454.615 65.54 457.229 63.86C459.842 62.18 462.945 61.34 466.539 61.34C471.299 61.34 475.405 62.7867 478.859 65.68L475.989 69.53C472.769 67.3833 469.595 66.31 466.469 66.31C463.155 66.31 460.495 67.5467 458.489 70.02C456.529 72.4467 455.549 76.0167 455.549 80.73C455.549 85.4433 456.529 88.9667 458.489 91.3C460.495 93.5867 463.179 94.73 466.539 94.73ZM497.661 67.22C499.108 65.3533 500.881 63.9067 502.981 62.88C505.081 61.8533 507.251 61.34 509.491 61.34C516.398 61.34 519.851 64.98 519.851 72.26V99H513.971V72.33C513.971 70.1367 513.458 68.55 512.431 67.57C511.405 66.5433 509.771 66.03 507.531 66.03C505.618 66.03 503.775 66.6367 502.001 67.85C500.228 69.0633 498.781 70.4867 497.661 72.12V99H491.781V47.34L497.661 46.71V67.22ZM547.824 61.34C552.911 61.34 556.807 63.0667 559.514 66.52C562.267 69.9267 563.644 74.5933 563.644 80.52C563.644 86.3067 562.244 90.9733 559.444 94.52C556.691 98.02 552.794 99.77 547.754 99.77C542.667 99.77 538.747 98.0667 535.994 94.66C533.241 91.2067 531.864 86.5167 531.864 80.59C531.864 74.7567 533.241 70.09 535.994 66.59C538.794 63.09 542.737 61.34 547.824 61.34ZM547.824 66.17C544.604 66.17 542.201 67.36 540.614 69.74C539.027 72.12 538.234 75.7367 538.234 80.59C538.234 85.4433 539.004 89.06 540.544 91.44C542.131 93.7733 544.534 94.94 547.754 94.94C550.974 94.94 553.354 93.7733 554.894 91.44C556.481 89.06 557.274 85.42 557.274 80.52C557.274 75.6667 556.481 72.0733 554.894 69.74C553.354 67.36 550.997 66.17 547.824 66.17ZM589.797 61.34C594.883 61.34 598.78 63.0667 601.487 66.52C604.24 69.9267 605.617 74.5933 605.617 80.52C605.617 86.3067 604.217 90.9733 601.417 94.52C598.663 98.02 594.767 99.77 589.727 99.77C584.64 99.77 580.72 98.0667 577.967 94.66C575.213 91.2067 573.837 86.5167 573.837 80.59C573.837 74.7567 575.213 70.09 577.967 66.59C580.767 63.09 584.71 61.34 589.797 61.34ZM589.797 66.17C586.577 66.17 584.173 67.36 582.587 69.74C581 72.12 580.207 75.7367 580.207 80.59C580.207 85.4433 580.977 89.06 582.517 91.44C584.103 93.7733 586.507 94.94 589.727 94.94C592.947 94.94 595.327 93.7733 596.867 91.44C598.453 89.06 599.247 85.42 599.247 80.52C599.247 75.6667 598.453 72.0733 596.867 69.74C595.327 67.36 592.97 66.17 589.797 66.17ZM632.119 89.9C632.119 93.2133 634.149 94.87 638.209 94.87C640.123 94.87 642.176 94.45 644.369 93.61L645.909 97.88C643.576 99.14 640.659 99.77 637.159 99.77C633.846 99.77 631.186 98.86 629.179 97.04C627.219 95.22 626.239 92.7467 626.239 89.62V51.96H614.899V47.27H632.119V89.9Z" fill="white"/>
</g>
<defs>
<filter id="filter0_d_221_43" x="-1.49756" y="-3" width="136.995" height="152" filterUnits="userSpaceOnUse" color-interpolation-filters="sRGB">
<feFlood flood-opacity="0" result="BackgroundImageFix"/>
<feColorMatrix in="SourceAlpha" type="matrix" values="0 0 0 0 0 0 0 0 0 0 0 0 0 0 0 0 0 0 127 0" result="hardAlpha"/>
<feOffset/>
<feGaussianBlur stdDeviation="10"/>
<feColorMatrix type="matrix" values="0 0 0 0 0 0 0 0 0 0 0 0 0 0 0 0 0 0 0.25 0"/>
<feBlend mode="normal" in2="BackgroundImageFix" result="effect1_dropShadow_221_43"/>
<feBlend mode="normal" in="SourceGraphic" in2="effect1_dropShadow_221_43" result="shape"/>
</filter>
<clipPath id="clip0_221_43">
<rect width="669" height="150" fill="white"/>
</clipPath>
</defs>
</svg>
