<svg width="23" height="24" viewBox="0 0 23 24" fill="none" xmlns="http://www.w3.org/2000/svg">
<path d="M1 11.4967V11.976C0.999915 13.9578 1.53407 15.903 2.54624 17.6068C3.55842 19.3106 5.01118 20.7101 6.75164 21.6579V23H16.3377V21.6579C18.0782 20.7101 19.5309 19.3106 20.5431 17.6068C21.5553 15.903 22.0894 13.9578 22.0893 11.976V11.4967H1Z" stroke="#5051F9" stroke-miterlimit="10"/>
<path d="M18.9319 7.1231L22.311 2.52179" stroke="#5051F9" stroke-miterlimit="10"/>
<path d="M17.7037 6.28432L18.8361 1" stroke="#5051F9" stroke-miterlimit="10"/>
<path d="M2.55771 11.4967C2.29132 10.2012 2.46116 8.85383 3.04073 7.66488C3.62031 6.47592 4.57704 5.51218 5.76173 4.92394C6.94642 4.3357 8.29247 4.15602 9.58997 4.41294C10.8875 4.66986 12.0635 5.34893 12.9346 6.34424" stroke="#5051F9" stroke-miterlimit="10"/>
<path d="M4.53481 11.4967C4.26298 10.6143 4.29894 9.66576 4.63681 8.80647C4.97468 7.94718 5.59442 7.22815 6.39446 6.76721C7.19449 6.30626 8.12738 6.13075 9.04023 6.26943C9.95308 6.40811 10.7918 6.85275 11.4188 7.5305" stroke="#5051F9" stroke-miterlimit="10"/>
<path d="M6.63776 11.4967C6.47168 11.2509 6.3581 10.9735 6.3041 10.6818C6.2501 10.3901 6.25686 10.0904 6.32394 9.80142C6.39103 9.51246 6.517 9.24044 6.69399 9.00237C6.87098 8.76429 7.09517 8.56529 7.35256 8.4178C7.60995 8.27031 7.895 8.1775 8.18988 8.14517C8.48477 8.11284 8.78315 8.14169 9.06638 8.22992C9.34961 8.31814 9.61159 8.46384 9.83596 8.65791C10.0603 8.85198 10.2422 9.09025 10.3703 9.35782" stroke="#5051F9" stroke-miterlimit="10"/>
<path d="M16.7271 11.4967C16.8062 11.2795 16.8318 11.0464 16.8017 10.8172C16.7716 10.5879 16.6866 10.3693 16.554 10.1799C16.4214 9.99053 16.2451 9.83588 16.0401 9.72911C15.835 9.62234 15.6072 9.56659 15.376 9.56659C15.1448 9.56659 14.917 9.62234 14.712 9.72911C14.5069 9.83588 14.3306 9.99053 14.198 10.1799C14.0654 10.3693 13.9805 10.5879 13.9504 10.8172C13.9202 11.0464 13.9458 11.2795 14.025 11.4967" stroke="#5051F9" stroke-miterlimit="10"/>
<path d="M18.6983 11.4967C18.7718 11.0186 18.741 10.5303 18.6081 10.0652C18.4752 9.60016 18.2433 9.16931 17.9284 8.80222C17.6134 8.43513 17.2228 8.14049 16.7833 7.93849C16.3438 7.73648 15.8658 7.6319 15.3821 7.6319C14.8984 7.6319 14.4204 7.73648 13.9809 7.93849C13.5414 8.14049 13.1508 8.43513 12.8358 8.80222C12.5209 9.16931 12.289 9.60016 12.1561 10.0652C12.0232 10.5303 11.9924 11.0186 12.0659 11.4967" stroke="#5051F9" stroke-miterlimit="10"/>
<path d="M20.6274 11.4967C20.6394 11.3409 20.6514 11.1792 20.6514 11.0174C20.6514 9.61908 20.0959 8.27804 19.1071 7.28929C18.1184 6.30053 16.7773 5.74506 15.379 5.74506C13.9807 5.74506 12.6397 6.30053 11.6509 7.28929C10.6622 8.27804 10.1067 9.61908 10.1067 11.0174C10.1067 11.1792 10.1187 11.3409 10.1307 11.4967" stroke="#5051F9" stroke-miterlimit="10"/>
</svg>
