<svg width="25" height="25" viewBox="0 0 25 25" fill="none" xmlns="http://www.w3.org/2000/svg">
<path d="M14.0625 21.9646C14.0625 21.574 13.9073 21.199 13.6313 20.9229L4.07708 11.3687C3.80104 11.0927 3.42604 10.9375 3.03542 10.9375C2.22187 10.9375 1.5625 11.5969 1.5625 12.4104C1.5625 12.801 1.71771 13.176 1.99375 13.4521L11.5474 23.0057C11.8234 23.2818 12.1984 23.437 12.5891 23.437C13.4031 23.4375 14.0625 22.7781 14.0625 21.9646Z" stroke="#5051F9" stroke-miterlimit="10"/>
<path d="M4.07708 15.5354C3.80104 15.2594 3.42604 15.1042 3.03542 15.1042C2.22188 15.1042 1.5625 15.7636 1.5625 16.5771C1.5625 16.9677 1.71771 17.3427 1.99375 17.6188L7.38073 23.0057C7.65677 23.2818 8.03177 23.437 8.4224 23.437C9.23646 23.4375 9.89583 22.7781 9.89583 21.9646C9.89583 21.574 9.74063 21.199 9.46458 20.9229" stroke="#5051F9" stroke-miterlimit="10"/>
<path d="M3.64587 19.2708L2.08337 20.8333L4.16671 22.9166L5.72921 21.3541" stroke="#5051F9" stroke-miterlimit="10"/>
<path d="M10.9375 3.03542C10.9375 3.42604 11.0927 3.80104 11.3687 4.07708L20.9224 13.6307C21.1984 13.9068 21.5734 14.062 21.9641 14.062C22.7781 14.0625 23.4375 13.4031 23.4375 12.5896C23.4375 12.199 23.2823 11.824 23.0063 11.5479L13.4521 1.99375C13.176 1.71771 12.801 1.5625 12.4104 1.5625C11.5969 1.5625 10.9375 2.22187 10.9375 3.03542V3.03542Z" stroke="#5051F9" stroke-miterlimit="10"/>
<path d="M20.9229 9.46458C21.1989 9.74063 21.5739 9.89583 21.9645 9.89583C22.7781 9.89583 23.4375 9.23646 23.4375 8.42292C23.4375 8.03229 23.2823 7.65729 23.0062 7.38125L17.6187 1.99375C17.3427 1.71771 16.9677 1.5625 16.577 1.5625C15.7635 1.5625 15.1041 2.22188 15.1041 3.03542C15.1041 3.42604 15.2593 3.80104 15.5354 4.07708" stroke="#5051F9" stroke-miterlimit="10"/>
<path d="M21.3542 5.72915L22.9167 4.16665L20.8334 2.08331L19.2709 3.64581" stroke="#5051F9" stroke-miterlimit="10"/>
<path d="M7.8125 15.1042L15.1042 7.8125" stroke="#5051F9" stroke-miterlimit="10"/>
<path d="M9.89587 17.1875L17.1875 9.89581" stroke="#5051F9" stroke-miterlimit="10"/>
</svg>
