<svg width="25" height="25" viewBox="0 0 25 25" fill="none" xmlns="http://www.w3.org/2000/svg">
<path d="M17.1875 10.4169H7.8125" stroke="#5051F9" stroke-miterlimit="10"/>
<path d="M7.8125 18.2294H17.1875" stroke="#5051F9" stroke-miterlimit="10"/>
<path d="M17.1874 18.2293C17.4637 18.2293 17.7286 18.3391 17.924 18.5344C18.1193 18.7298 18.2291 18.9947 18.2291 19.271V22.9168C18.2291 23.3312 18.0645 23.7287 17.7714 24.0217C17.4784 24.3147 17.081 24.4793 16.6666 24.4793H8.33325C7.91885 24.4793 7.52142 24.3147 7.2284 24.0217C6.93537 23.7287 6.77075 23.3312 6.77075 22.9168V19.271C6.77075 18.9947 6.8805 18.7298 7.07585 18.5344C7.2712 18.3391 7.53615 18.2293 7.81242 18.2293V10.4168C7.53615 10.4168 7.2712 10.3071 7.07585 10.1117C6.8805 9.91639 6.77075 9.65144 6.77075 9.37517V7.29184C6.77075 6.46304 7.09999 5.66818 7.68604 5.08213C8.27209 4.49608 9.06695 4.16684 9.89575 4.16684H15.1041C15.9329 4.16684 16.7277 4.49608 17.3138 5.08213C17.8998 5.66818 18.2291 6.46304 18.2291 7.29184V9.37517C18.2291 9.65144 18.1193 9.91639 17.924 10.1117C17.7286 10.3071 17.4637 10.4168 17.1874 10.4168V18.2293Z" stroke="#5051F9" stroke-miterlimit="10"/>
<path d="M15.1041 4.16689V1.56272C15.1041 1.28646 14.9943 1.0215 14.799 0.826154C14.6036 0.630804 14.3387 0.521057 14.0624 0.521057H10.9374C10.6612 0.521057 10.3962 0.630804 10.2008 0.826154C10.0055 1.0215 9.89575 1.28646 9.89575 1.56272V4.16689" stroke="#5051F9" stroke-miterlimit="10"/>
</svg>
